0
SECTION
2
HEADER
9
$INSUNITS
70
4
0
ENDSEC
0
SECTION
2
TABLES
0
TABLE
2
LTYPE
0
LTYPE
72
65
70
64
2
CONTINUOUS
3
______
73
0
40
0
0
ENDTAB
0
TABLE
2
LAYER
0
ENDTAB
0
ENDSEC
0
SECTION
2
ENTITIES
0
LINE
8
0
10
3.025
20
-2.525
11
16.025
21
-2.525
0
LINE
8
0
10
3.025
20
-16.525
11
16.025
21
-16.525
0
LINE
8
0
10
2.525
20
-3.025
11
2.525
21
-16.025
0
LINE
8
0
10
16.525
20
-3.025
11
16.525
21
-16.025
0
ARC
8
0
10
3.025
20
-3.025
40
0.5
50
90
51
180
0
ARC
8
0
10
16.025
20
-3.025
40
0.5
50
0
51
90
0
ARC
8
0
10
3.025
20
-16.025
40
0.5
50
180
51
270
0
ARC
8
0
10
16.025
20
-16.025
40
0.5
50
270
51
0
0
LINE
8
0
10
23.98
20
-2.525
11
36.98
21
-2.525
0
LINE
8
0
10
23.98
20
-16.525
11
36.98
21
-16.525
0
LINE
8
0
10
23.48
20
-3.025
11
23.48
21
-16.025
0
LINE
8
0
10
37.48
20
-3.025
11
37.48
21
-16.025
0
ARC
8
0
10
23.98
20
-3.025
40
0.5
50
90
51
180
0
ARC
8
0
10
36.98
20
-3.025
40
0.5
50
0
51
90
0
ARC
8
0
10
23.98
20
-16.025
40
0.5
50
180
51
270
0
ARC
8
0
10
36.98
20
-16.025
40
0.5
50
270
51
0
0
LINE
8
0
10
44.935
20
-2.525
11
57.935
21
-2.525
0
LINE
8
0
10
44.935
20
-16.525
11
57.935
21
-16.525
0
LINE
8
0
10
44.435
20
-3.025
11
44.435
21
-16.025
0
LINE
8
0
10
58.435
20
-3.025
11
58.435
21
-16.025
0
ARC
8
0
10
44.935
20
-3.025
40
0.5
50
90
51
180
0
ARC
8
0
10
57.935
20
-3.025
40
0.5
50
0
51
90
0
ARC
8
0
10
44.935
20
-16.025
40
0.5
50
180
51
270
0
ARC
8
0
10
57.935
20
-16.025
40
0.5
50
270
51
0
0
LINE
8
0
10
65.89
20
-2.525
11
78.89
21
-2.525
0
LINE
8
0
10
65.89
20
-16.525
11
78.89
21
-16.525
0
LINE
8
0
10
65.39
20
-3.025
11
65.39
21
-16.025
0
LINE
8
0
10
79.39
20
-3.025
11
79.39
21
-16.025
0
ARC
8
0
10
65.89
20
-3.025
40
0.5
50
90
51
180
0
ARC
8
0
10
78.89
20
-3.025
40
0.5
50
0
51
90
0
ARC
8
0
10
65.89
20
-16.025
40
0.5
50
180
51
270
0
ARC
8
0
10
78.89
20
-16.025
40
0.5
50
270
51
0
0
LINE
8
0
10
86.845
20
-2.525
11
99.845
21
-2.525
0
LINE
8
0
10
86.845
20
-16.525
11
99.845
21
-16.525
0
LINE
8
0
10
86.345
20
-3.025
11
86.345
21
-16.025
0
LINE
8
0
10
100.345
20
-3.025
11
100.345
21
-16.025
0
ARC
8
0
10
86.845
20
-3.025
40
0.5
50
90
51
180
0
ARC
8
0
10
99.845
20
-3.025
40
0.5
50
0
51
90
0
ARC
8
0
10
86.845
20
-16.025
40
0.5
50
180
51
270
0
ARC
8
0
10
99.845
20
-16.025
40
0.5
50
270
51
0
0
LINE
8
0
10
3.025
20
-26.3375
11
16.025
21
-26.3375
0
LINE
8
0
10
3.025
20
-40.3375
11
16.025
21
-40.3375
0
LINE
8
0
10
2.525
20
-26.8375
11
2.525
21
-39.8375
0
LINE
8
0
10
16.525
20
-26.8375
11
16.525
21
-39.8375
0
ARC
8
0
10
3.025
20
-26.8375
40
0.5
50
90
51
180
0
ARC
8
0
10
16.025
20
-26.8375
40
0.5
50
0
51
90
0
ARC
8
0
10
3.025
20
-39.8375
40
0.5
50
180
51
270
0
ARC
8
0
10
16.025
20
-39.8375
40
0.5
50
270
51
0
0
LINE
8
0
10
23.98
20
-26.3375
11
36.98
21
-26.3375
0
LINE
8
0
10
23.98
20
-40.3375
11
36.98
21
-40.3375
0
LINE
8
0
10
23.48
20
-26.8375
11
23.48
21
-39.8375
0
LINE
8
0
10
37.48
20
-26.8375
11
37.48
21
-39.8375
0
ARC
8
0
10
23.98
20
-26.8375
40
0.5
50
90
51
180
0
ARC
8
0
10
36.98
20
-26.8375
40
0.5
50
0
51
90
0
ARC
8
0
10
23.98
20
-39.8375
40
0.5
50
180
51
270
0
ARC
8
0
10
36.98
20
-39.8375
40
0.5
50
270
51
0
0
LINE
8
0
10
44.935
20
-26.3375
11
57.935
21
-26.3375
0
LINE
8
0
10
44.935
20
-40.3375
11
57.935
21
-40.3375
0
LINE
8
0
10
44.435
20
-26.8375
11
44.435
21
-39.8375
0
LINE
8
0
10
58.435
20
-26.8375
11
58.435
21
-39.8375
0
ARC
8
0
10
44.935
20
-26.8375
40
0.5
50
90
51
180
0
ARC
8
0
10
57.935
20
-26.8375
40
0.5
50
0
51
90
0
ARC
8
0
10
44.935
20
-39.8375
40
0.5
50
180
51
270
0
ARC
8
0
10
57.935
20
-39.8375
40
0.5
50
270
51
0
0
LINE
8
0
10
65.89
20
-26.3375
11
78.89
21
-26.3375
0
LINE
8
0
10
65.89
20
-40.3375
11
78.89
21
-40.3375
0
LINE
8
0
10
65.39
20
-26.8375
11
65.39
21
-39.8375
0
LINE
8
0
10
79.39
20
-26.8375
11
79.39
21
-39.8375
0
ARC
8
0
10
65.89
20
-26.8375
40
0.5
50
90
51
180
0
ARC
8
0
10
78.89
20
-26.8375
40
0.5
50
0
51
90
0
ARC
8
0
10
65.89
20
-39.8375
40
0.5
50
180
51
270
0
ARC
8
0
10
78.89
20
-39.8375
40
0.5
50
270
51
0
0
LINE
8
0
10
86.845
20
-26.3375
11
99.845
21
-26.3375
0
LINE
8
0
10
86.845
20
-40.3375
11
99.845
21
-40.3375
0
LINE
8
0
10
86.345
20
-26.8375
11
86.345
21
-39.8375
0
LINE
8
0
10
100.345
20
-26.8375
11
100.345
21
-39.8375
0
ARC
8
0
10
86.845
20
-26.8375
40
0.5
50
90
51
180
0
ARC
8
0
10
99.845
20
-26.8375
40
0.5
50
0
51
90
0
ARC
8
0
10
86.845
20
-39.8375
40
0.5
50
180
51
270
0
ARC
8
0
10
99.845
20
-39.8375
40
0.5
50
270
51
0
0
LINE
8
0
10
3.025
20
-50.15
11
16.025
21
-50.15
0
LINE
8
0
10
3.025
20
-64.15
11
16.025
21
-64.15
0
LINE
8
0
10
2.525
20
-50.65
11
2.525
21
-63.65
0
LINE
8
0
10
16.525
20
-50.65
11
16.525
21
-63.65
0
ARC
8
0
10
3.025
20
-50.65
40
0.5
50
90
51
180
0
ARC
8
0
10
16.025
20
-50.65
40
0.5
50
0
51
90
0
ARC
8
0
10
3.025
20
-63.65
40
0.5
50
180
51
270
0
ARC
8
0
10
16.025
20
-63.65
40
0.5
50
270
51
0
0
LINE
8
0
10
23.98
20
-50.15
11
36.98
21
-50.15
0
LINE
8
0
10
23.98
20
-64.15
11
36.98
21
-64.15
0
LINE
8
0
10
23.48
20
-50.65
11
23.48
21
-63.65
0
LINE
8
0
10
37.48
20
-50.65
11
37.48
21
-63.65
0
ARC
8
0
10
23.98
20
-50.65
40
0.5
50
90
51
180
0
ARC
8
0
10
36.98
20
-50.65
40
0.5
50
0
51
90
0
ARC
8
0
10
23.98
20
-63.65
40
0.5
50
180
51
270
0
ARC
8
0
10
36.98
20
-63.65
40
0.5
50
270
51
0
0
LINE
8
0
10
44.935
20
-50.15
11
57.935
21
-50.15
0
LINE
8
0
10
44.935
20
-64.15
11
57.935
21
-64.15
0
LINE
8
0
10
44.435
20
-50.65
11
44.435
21
-63.65
0
LINE
8
0
10
58.435
20
-50.65
11
58.435
21
-63.65
0
ARC
8
0
10
44.935
20
-50.65
40
0.5
50
90
51
180
0
ARC
8
0
10
57.935
20
-50.65
40
0.5
50
0
51
90
0
ARC
8
0
10
44.935
20
-63.65
40
0.5
50
180
51
270
0
ARC
8
0
10
57.935
20
-63.65
40
0.5
50
270
51
0
0
LINE
8
0
10
65.89
20
-50.15
11
78.89
21
-50.15
0
LINE
8
0
10
65.89
20
-64.15
11
78.89
21
-64.15
0
LINE
8
0
10
65.39
20
-50.65
11
65.39
21
-63.65
0
LINE
8
0
10
79.39
20
-50.65
11
79.39
21
-63.65
0
ARC
8
0
10
65.89
20
-50.65
40
0.5
50
90
51
180
0
ARC
8
0
10
78.89
20
-50.65
40
0.5
50
0
51
90
0
ARC
8
0
10
65.89
20
-63.65
40
0.5
50
180
51
270
0
ARC
8
0
10
78.89
20
-63.65
40
0.5
50
270
51
0
0
LINE
8
0
10
86.845
20
-50.15
11
99.845
21
-50.15
0
LINE
8
0
10
86.845
20
-64.15
11
99.845
21
-64.15
0
LINE
8
0
10
86.345
20
-50.65
11
86.345
21
-63.65
0
LINE
8
0
10
100.345
20
-50.65
11
100.345
21
-63.65
0
ARC
8
0
10
86.845
20
-50.65
40
0.5
50
90
51
180
0
ARC
8
0
10
99.845
20
-50.65
40
0.5
50
0
51
90
0
ARC
8
0
10
86.845
20
-63.65
40
0.5
50
180
51
270
0
ARC
8
0
10
99.845
20
-63.65
40
0.5
50
270
51
0
0
LINE
8
0
10
0
20
-66.675
11
102.87
21
-66.675
0
LINE
8
0
10
0
20
0
11
102.87
21
0
0
LINE
8
0
10
0
20
-66.675
11
0
21
0
0
LINE
8
0
10
102.87
20
-66.675
11
102.87
21
0
0
ENDSEC
0
EOF