<svg width="102.87mm" height="66.675mm" viewBox="0 0 102.87 66.675" xmlns="http://www.w3.org/2000/svg"><g id="svgGroup" stroke-linecap="round" fill-rule="evenodd" font-size="9pt" stroke="#000" stroke-width="0.25mm" fill="none" style="stroke:#000;stroke-width:0.25mm;fill:none"><path d="M 0 66.675 L 102.87 66.675 L 102.87 0 L 0 0 L 0 66.675 Z M 23.98 2.525 L 36.98 2.525 A 0.5 0.5 0 0 1 37.48 3.025 L 37.48 16.025 A 0.5 0.5 0 0 1 36.98 16.525 L 23.98 16.525 A 0.5 0.5 0 0 1 23.48 16.025 L 23.48 3.025 A 0.5 0.5 0 0 1 23.98 2.525 Z M 23.98 26.338 L 36.98 26.338 A 0.5 0.5 0 0 1 37.48 26.838 L 37.48 39.838 A 0.5 0.5 0 0 1 36.98 40.338 L 23.98 40.338 A 0.5 0.5 0 0 1 23.48 39.838 L 23.48 26.838 A 0.5 0.5 0 0 1 23.98 26.338 Z M 23.98 50.15 L 36.98 50.15 A 0.5 0.5 0 0 1 37.48 50.65 L 37.48 63.65 A 0.5 0.5 0 0 1 36.98 64.15 L 23.98 64.15 A 0.5 0.5 0 0 1 23.48 63.65 L 23.48 50.65 A 0.5 0.5 0 0 1 23.98 50.15 Z M 44.935 26.338 L 57.935 26.338 A 0.5 0.5 0 0 1 58.435 26.838 L 58.435 39.838 A 0.5 0.5 0 0 1 57.935 40.338 L 44.935 40.338 A 0.5 0.5 0 0 1 44.435 39.838 L 44.435 26.838 A 0.5 0.5 0 0 1 44.935 26.338 Z M 65.89 26.338 L 78.89 26.338 A 0.5 0.5 0 0 1 79.39 26.838 L 79.39 39.838 A 0.5 0.5 0 0 1 78.89 40.338 L 65.89 40.338 A 0.5 0.5 0 0 1 65.39 39.838 L 65.39 26.838 A 0.5 0.5 0 0 1 65.89 26.338 Z M 86.845 26.338 L 99.845 26.338 A 0.5 0.5 0 0 1 100.345 26.838 L 100.345 39.838 A 0.5 0.5 0 0 1 99.845 40.338 L 86.845 40.338 A 0.5 0.5 0 0 1 86.345 39.838 L 86.345 26.838 A 0.5 0.5 0 0 1 86.845 26.338 Z M 44.935 50.15 L 57.935 50.15 A 0.5 0.5 0 0 1 58.435 50.65 L 58.435 63.65 A 0.5 0.5 0 0 1 57.935 64.15 L 44.935 64.15 A 0.5 0.5 0 0 1 44.435 63.65 L 44.435 50.65 A 0.5 0.5 0 0 1 44.935 50.15 Z M 65.89 50.15 L 78.89 50.15 A 0.5 0.5 0 0 1 79.39 50.65 L 79.39 63.65 A 0.5 0.5 0 0 1 78.89 64.15 L 65.89 64.15 A 0.5 0.5 0 0 1 65.39 63.65 L 65.39 50.65 A 0.5 0.5 0 0 1 65.89 50.15 Z M 86.845 50.15 L 99.845 50.15 A 0.5 0.5 0 0 1 100.345 50.65 L 100.345 63.65 A 0.5 0.5 0 0 1 99.845 64.15 L 86.845 64.15 A 0.5 0.5 0 0 1 86.345 63.65 L 86.345 50.65 A 0.5 0.5 0 0 1 86.845 50.15 Z M 3.025 2.525 L 16.025 2.525 A 0.5 0.5 0 0 1 16.525 3.025 L 16.525 16.025 A 0.5 0.5 0 0 1 16.025 16.525 L 3.025 16.525 A 0.5 0.5 0 0 1 2.525 16.025 L 2.525 3.025 A 0.5 0.5 0 0 1 3.025 2.525 Z M 44.935 2.525 L 57.935 2.525 A 0.5 0.5 0 0 1 58.435 3.025 L 58.435 16.025 A 0.5 0.5 0 0 1 57.935 16.525 L 44.935 16.525 A 0.5 0.5 0 0 1 44.435 16.025 L 44.435 3.025 A 0.5 0.5 0 0 1 44.935 2.525 Z M 65.89 2.525 L 78.89 2.525 A 0.5 0.5 0 0 1 79.39 3.025 L 79.39 16.025 A 0.5 0.5 0 0 1 78.89 16.525 L 65.89 16.525 A 0.5 0.5 0 0 1 65.39 16.025 L 65.39 3.025 A 0.5 0.5 0 0 1 65.89 2.525 Z M 86.845 2.525 L 99.845 2.525 A 0.5 0.5 0 0 1 100.345 3.025 L 100.345 16.025 A 0.5 0.5 0 0 1 99.845 16.525 L 86.845 16.525 A 0.5 0.5 0 0 1 86.345 16.025 L 86.345 3.025 A 0.5 0.5 0 0 1 86.845 2.525 Z M 3.025 26.338 L 16.025 26.338 A 0.5 0.5 0 0 1 16.525 26.838 L 16.525 39.838 A 0.5 0.5 0 0 1 16.025 40.338 L 3.025 40.338 A 0.5 0.5 0 0 1 2.525 39.838 L 2.525 26.838 A 0.5 0.5 0 0 1 3.025 26.338 Z M 3.025 50.15 L 16.025 50.15 A 0.5 0.5 0 0 1 16.525 50.65 L 16.525 63.65 A 0.5 0.5 0 0 1 16.025 64.15 L 3.025 64.15 A 0.5 0.5 0 0 1 2.525 63.65 L 2.525 50.65 A 0.5 0.5 0 0 1 3.025 50.15 Z" vector-effect="non-scaling-stroke"/></g></svg>