<svg xmlns="http://www.w3.org/2000/svg"
     width="210mm" height="297mm"
     viewBox="0 0 210 297">
  <!-- A4 page: 210 x 297 mm. Coordinates are mm. -->

  <!-- Plate, translated to (10,10) mm. Original SVG path preserved verbatim. -->
  <g transform="translate(10,10)" stroke="#000" stroke-width="0.25" fill="none" stroke-linecap="round" fill-rule="evenodd" vector-effect="non-scaling-stroke" style="stroke:#000;stroke-width:0.25mm;fill:none">
    <path d="M 0 66.675 L 102.87 66.675 L 102.87 0 L 0 0 L 0 66.675 Z M 23.98 2.525 L 36.98 2.525 A 0.5 0.5 0 0 1 37.48 3.025 L 37.48 16.025 A 0.5 0.5 0 0 1 36.98 16.525 L 23.98 16.525 A 0.5 0.5 0 0 1 23.48 16.025 L 23.48 3.025 A 0.5 0.5 0 0 1 23.98 2.525 Z M 23.98 26.338 L 36.98 26.338 A 0.5 0.5 0 0 1 37.48 26.838 L 37.48 39.838 A 0.5 0.5 0 0 1 36.98 40.338 L 23.98 40.338 A 0.5 0.5 0 0 1 23.48 39.838 L 23.48 26.838 A 0.5 0.5 0 0 1 23.98 26.338 Z M 23.98 50.15 L 36.98 50.15 A 0.5 0.5 0 0 1 37.48 50.65 L 37.48 63.65 A 0.5 0.5 0 0 1 36.98 64.15 L 23.98 64.15 A 0.5 0.5 0 0 1 23.48 63.65 L 23.48 50.65 A 0.5 0.5 0 0 1 23.98 50.15 Z M 44.935 26.338 L 57.935 26.338 A 0.5 0.5 0 0 1 58.435 26.838 L 58.435 39.838 A 0.5 0.5 0 0 1 57.935 40.338 L 44.935 40.338 A 0.5 0.5 0 0 1 44.435 39.838 L 44.435 26.838 A 0.5 0.5 0 0 1 44.935 26.338 Z M 65.89 26.338 L 78.89 26.338 A 0.5 0.5 0 0 1 79.39 26.838 L 79.39 39.838 A 0.5 0.5 0 0 1 78.89 40.338 L 65.89 40.338 A 0.5 0.5 0 0 1 65.39 39.838 L 65.39 26.838 A 0.5 0.5 0 0 1 65.89 26.338 Z M 86.845 26.338 L 99.845 26.338 A 0.5 0.5 0 0 1 100.345 26.838 L 100.345 39.838 A 0.5 0.5 0 0 1 99.845 40.338 L 86.845 40.338 A 0.5 0.5 0 0 1 86.345 39.838 L 86.345 26.838 A 0.5 0.5 0 0 1 86.845 26.338 Z M 44.935 50.15 L 57.935 50.15 A 0.5 0.5 0 0 1 58.435 50.65 L 58.435 63.65 A 0.5 0.5 0 0 1 57.935 64.15 L 44.935 64.15 A 0.5 0.5 0 0 1 44.435 63.65 L 44.435 50.65 A 0.5 0.5 0 0 1 44.935 50.15 Z M 65.89 50.15 L 78.89 50.15 A 0.5 0.5 0 0 1 79.39 50.65 L 79.39 63.65 A 0.5 0.5 0 0 1 78.89 64.15 L 65.89 64.15 A 0.5 0.5 0 0 1 65.39 63.65 L 65.39 50.65 A 0.5 0.5 0 0 1 65.89 50.15 Z M 86.845 50.15 L 99.845 50.15 A 0.5 0.5 0 0 1 100.345 50.65 L 100.345 63.65 A 0.5 0.5 0 0 1 99.845 64.15 L 86.845 64.15 A 0.5 0.5 0 0 1 86.345 63.65 L 86.345 50.65 A 0.5 0.5 0 0 1 86.845 50.15 Z M 3.025 2.525 L 16.025 2.525 A 0.5 0.5 0 0 1 16.525 3.025 L 16.525 16.025 A 0.5 0.5 0 0 1 16.025 16.525 L 3.025 16.525 A 0.5 0.5 0 0 1 2.525 16.025 L 2.525 3.025 A 0.5 0.5 0 0 1 3.025 2.525 Z M 44.935 2.525 L 57.935 2.525 A 0.5 0.5 0 0 1 58.435 3.025 L 58.435 16.025 A 0.5 0.5 0 0 1 57.935 16.525 L 44.935 16.525 A 0.5 0.5 0 0 1 44.435 16.025 L 44.435 3.025 A 0.5 0.5 0 0 1 44.935 2.525 Z M 65.89 2.525 L 78.89 2.525 A 0.5 0.5 0 0 1 79.39 3.025 L 79.39 16.025 A 0.5 0.5 0 0 1 78.89 16.525 L 65.89 16.525 A 0.5 0.5 0 0 1 65.39 16.025 L 65.39 3.025 A 0.5 0.5 0 0 1 65.89 2.525 Z M 86.845 2.525 L 99.845 2.525 A 0.5 0.5 0 0 1 100.345 3.025 L 100.345 16.025 A 0.5 0.5 0 0 1 99.845 16.525 L 86.845 16.525 A 0.5 0.5 0 0 1 86.345 16.025 L 86.345 3.025 A 0.5 0.5 0 0 1 86.845 2.525 Z M 3.025 26.338 L 16.025 26.338 A 0.5 0.5 0 0 1 16.525 26.838 L 16.525 39.838 A 0.5 0.5 0 0 1 16.025 40.338 L 3.025 40.338 A 0.5 0.5 0 0 1 2.525 39.838 L 2.525 26.838 A 0.5 0.5 0 0 1 3.025 26.338 Z M 3.025 50.15 L 16.025 50.15 A 0.5 0.5 0 0 1 16.525 50.65 L 16.525 63.65 A 0.5 0.5 0 0 1 16.025 64.15 L 3.025 64.15 A 0.5 0.5 0 0 1 2.525 63.65 L 2.525 50.65 A 0.5 0.5 0 0 1 3.025 50.15 Z"/>
  </g>

  <!-- Calibration block: ruler + 10 mm reference line + 14 mm reference square -->
  <!-- Placed below the plate, starting at y = 95 mm -->
  <g font-family="sans-serif" font-size="3" fill="#000" stroke="#000">

    <!-- Header label -->
    <text x="10" y="92" font-size="3.5" stroke="none">CALIBRATION — measure with ruler. If wrong, your print is scaled.</text>

    <!-- 10 mm horizontal line with end ticks -->
    <g stroke-width="0.25" fill="none">
      <line x1="10" y1="100" x2="20" y2="100"/>
      <line x1="10" y1="98.5" x2="10" y2="101.5"/>
      <line x1="20" y1="98.5" x2="20" y2="101.5"/>
    </g>
    <text x="22" y="101" font-size="3" stroke="none">10 mm reference line (tick to tick)</text>

    <!-- 50 mm ruler with mm ticks (every 1mm short, every 5mm medium, every 10mm long+label) -->
    <g stroke-width="0.2" fill="none">
      <line x1="10" y1="115" x2="60" y2="115"/>
      <!-- 1mm ticks -->
      <line x1="11" y1="115" x2="11" y2="116"/><line x1="12" y1="115" x2="12" y2="116"/><line x1="13" y1="115" x2="13" y2="116"/><line x1="14" y1="115" x2="14" y2="116"/>
      <line x1="16" y1="115" x2="16" y2="116"/><line x1="17" y1="115" x2="17" y2="116"/><line x1="18" y1="115" x2="18" y2="116"/><line x1="19" y1="115" x2="19" y2="116"/>
      <line x1="21" y1="115" x2="21" y2="116"/><line x1="22" y1="115" x2="22" y2="116"/><line x1="23" y1="115" x2="23" y2="116"/><line x1="24" y1="115" x2="24" y2="116"/>
      <line x1="26" y1="115" x2="26" y2="116"/><line x1="27" y1="115" x2="27" y2="116"/><line x1="28" y1="115" x2="28" y2="116"/><line x1="29" y1="115" x2="29" y2="116"/>
      <line x1="31" y1="115" x2="31" y2="116"/><line x1="32" y1="115" x2="32" y2="116"/><line x1="33" y1="115" x2="33" y2="116"/><line x1="34" y1="115" x2="34" y2="116"/>
      <line x1="36" y1="115" x2="36" y2="116"/><line x1="37" y1="115" x2="37" y2="116"/><line x1="38" y1="115" x2="38" y2="116"/><line x1="39" y1="115" x2="39" y2="116"/>
      <line x1="41" y1="115" x2="41" y2="116"/><line x1="42" y1="115" x2="42" y2="116"/><line x1="43" y1="115" x2="43" y2="116"/><line x1="44" y1="115" x2="44" y2="116"/>
      <line x1="46" y1="115" x2="46" y2="116"/><line x1="47" y1="115" x2="47" y2="116"/><line x1="48" y1="115" x2="48" y2="116"/><line x1="49" y1="115" x2="49" y2="116"/>
      <line x1="51" y1="115" x2="51" y2="116"/><line x1="52" y1="115" x2="52" y2="116"/><line x1="53" y1="115" x2="53" y2="116"/><line x1="54" y1="115" x2="54" y2="116"/>
      <line x1="56" y1="115" x2="56" y2="116"/><line x1="57" y1="115" x2="57" y2="116"/><line x1="58" y1="115" x2="58" y2="116"/><line x1="59" y1="115" x2="59" y2="116"/>
      <!-- 5mm medium ticks -->
      <line x1="15" y1="115" x2="15" y2="117"/><line x1="25" y1="115" x2="25" y2="117"/><line x1="35" y1="115" x2="35" y2="117"/><line x1="45" y1="115" x2="45" y2="117"/><line x1="55" y1="115" x2="55" y2="117"/>
      <!-- 10mm long ticks -->
      <line x1="10" y1="115" x2="10" y2="118.5"/>
      <line x1="20" y1="115" x2="20" y2="118.5"/>
      <line x1="30" y1="115" x2="30" y2="118.5"/>
      <line x1="40" y1="115" x2="40" y2="118.5"/>
      <line x1="50" y1="115" x2="50" y2="118.5"/>
      <line x1="60" y1="115" x2="60" y2="118.5"/>
    </g>
    <!-- Ruler labels -->
    <text x="9.2"  y="122" font-size="2.8" stroke="none">0</text>
    <text x="18.6" y="122" font-size="2.8" stroke="none">10</text>
    <text x="28.6" y="122" font-size="2.8" stroke="none">20</text>
    <text x="38.6" y="122" font-size="2.8" stroke="none">30</text>
    <text x="48.6" y="122" font-size="2.8" stroke="none">40</text>
    <text x="58.6" y="122" font-size="2.8" stroke="none">50</text>
    <text x="62" y="117" font-size="3" stroke="none">mm</text>

    <!-- 14 mm reference square (matches one switch cutout) -->
    <rect x="10" y="130" width="14" height="14" stroke-width="0.25" fill="none"/>
    <text x="26" y="138" font-size="3" stroke="none">14 mm × 14 mm reference square</text>
    <text x="26" y="142" font-size="2.8" stroke="none">(matches one Cherry MX cutout in the plate above)</text>
  </g>
</svg>
